# xmcd
#
# Track frame offsets: 
#        150
#        14235
#        32322
#        61065
#        81508
#        96383
#        109040
#        128835
#        160366
#        174940
#        187442
#        200240
#
# Disc length: 2873 seconds
#
# Revision: 2
# Processed by: cddbd v1.5.2PL0 Copyright (c) Steve Scherf et al.
# Submitted via: ExactAudioCopyFreeDBPlugin 1.0
#
DISCID=ab0b370c
DTITLE=Grant and Forsyth - 1992 - Country Love Songs vol.3
DYEAR=1992
DGENRE=Country
TTITLE0=Only a Fool
TTITLE1=all Out Of Love
TTITLE2=Medley
TTITLE3=House For Sale
TTITLE4=Till I Can Make It On My Own
TTITLE5=If I Were A Carpenter
TTITLE6=Do That To Me One More Time
TTITLE7=Medley
TTITLE8=Driving My Life Away
TTITLE9=Before The Next Teardrop falls
TTITLE10=I Believe
TTITLE11=Treat Me Nice - Don't Be Cruel Im Leaving It All Up To You
EXTD=
EXTT0=
EXTT1=
EXTT2=
EXTT3=
EXTT4=
EXTT5=
EXTT6=
EXTT7=
EXTT8=
EXTT9=
EXTT10=
EXTT11=
PLAYORDER=
